<svg xmlns="http://www.w3.org/2000/svg" xmlns:xlink="http://www.w3.org/1999/xlink" width="16" height="16" viewBox="0 0 16 16"><defs><linearGradient id="a" x1="1" y1="0.03" x2="0.161" y2="1.038" gradientUnits="objectBoundingBox"><stop offset="0" stop-color="#00ffa7"/><stop offset="1" stop-color="#00ebff"/></linearGradient></defs><g transform="translate(-45 -463.908)"><circle cx="8" cy="8" r="8" transform="translate(45 463.908)" fill="url(#a)"/><g transform="translate(47.805 468.688)"><path d="M0,1.094H3.127V0H0Z" transform="translate(1.32)" fill="#fff"/><path d="M0,1.094H8.016V0H0Z" transform="translate(0 1.857)" fill="#fff"/><path d="M0,1.094H3.151V0H0Z" transform="translate(1.308 3.714)" fill="#fff"/><path d="M0,6.641H1.094V0H0Z" transform="translate(2.687 0)" fill="#fff"/><path d="M0,6.641H1.094V0H0Z" transform="translate(4.993)" fill="#fff"/><path d="M0,1.094H2.378V0H0Z" transform="translate(1.403 5.571)" fill="#fff"/><path d="M0,0H2.079c2.489,0,3.4,1.171,3.4,3.319s-.908,3.319-3.4,3.319H1.734l0-1.134h.223c1.718,0,2.109-.683,2.109-2.187s-.39-2.187-2.109-2.187h-.6L.012,1.093Z" transform="translate(5.085 0.001)" fill="#fff"/></g></g></svg>