<svg xmlns="http://www.w3.org/2000/svg" width="20.295" height="20" viewBox="0 0 20.295 20">
  <g id="Close" transform="translate(-233.352 -20)">
    <path id="VW_Icon_Down_L_Active" d="M85.042,158.9,77.1,167.034a.508.508,0,0,1-.725,0L68.432,158.9l-1.695,1.661,7.939,8.122a2.885,2.885,0,0,0,4.119,0l7.942-8.115Z" transform="translate(412.546 -46.737) rotate(90)"/>
    <path id="VW_Icon_Down_L_Active-2" data-name="VW_Icon_Down_L_Active" d="M18.305,10.648,10.363,2.512a.508.508,0,0,0-.725,0L1.695,10.648,0,8.987,7.939.865a2.885,2.885,0,0,1,4.119,0L20,8.98Z" transform="translate(244 20) rotate(90)"/>
  </g>
</svg>
