<svg id="SearchResult-2" data-name="SearchResult" xmlns="http://www.w3.org/2000/svg" xmlns:xlink="http://www.w3.org/1999/xlink" width="21.794" height="20.447" viewBox="0 0 21.794 20.447">
  <defs>
    <clipPath id="clip-path">
      <path id="search" d="M15.275,15.641A9.071,9.071,0,0,1,9,18a9.027,9.027,0,0,1-6.461-2.539A9.027,9.027,0,0,1,0,9,9.027,9.027,0,0,1,2.539,2.539,9.027,9.027,0,0,1,9,0a9.027,9.027,0,0,1,6.461,2.539A9.027,9.027,0,0,1,18,9a9.352,9.352,0,0,1-1.443,5.1l5.236,4.881-1.364,1.463ZM2,9a6.7,6.7,0,0,0,7,7,6.7,6.7,0,0,0,7-7A6.7,6.7,0,0,0,9,2,6.7,6.7,0,0,0,2,9Z" transform="translate(1 2)"/>
    </clipPath>
  </defs>
  <g transform="translate(-1 -2)">
    <path id="search-3" data-name="search" d="M15.275,15.641A9.071,9.071,0,0,1,9,18a9.027,9.027,0,0,1-6.461-2.539A9.027,9.027,0,0,1,0,9,9.027,9.027,0,0,1,2.539,2.539,9.027,9.027,0,0,1,9,0a9.027,9.027,0,0,1,6.461,2.539A9.027,9.027,0,0,1,18,9a9.352,9.352,0,0,1-1.443,5.1l5.236,4.881-1.364,1.463ZM2,9a6.7,6.7,0,0,0,7,7,6.7,6.7,0,0,0,7-7A6.7,6.7,0,0,0,9,2,6.7,6.7,0,0,0,2,9Z" transform="translate(1 2)"/>
  </g>
</svg>
