<svg xmlns="http://www.w3.org/2000/svg" width="16.8" height="16.8" viewBox="0 0 16.8 16.8"><g transform="translate(-180.6 -897.6)"><path d="M8.5,1a8,8,0,1,0,8,8A8,8,0,0,0,8.5,1Zm4.878,8.09L9.143,12.244a.439.439,0,0,1-.27.092.444.444,0,0,1-.444-.412V10.369H7.248a5.491,5.491,0,0,0-3.781,1.5.185.185,0,0,1-.3-.144h0v-.03A5.586,5.586,0,0,1,8.427,7.32V5.751a.446.446,0,0,1,.444-.412.434.434,0,0,1,.26.086L13.38,8.589a.335.335,0,0,1,.116.25A.325.325,0,0,1,13.378,9.09Z" transform="translate(180.5 897)" fill="none" stroke="#000" stroke-width="0.8"/></g></svg>